<svg xmlns="http://www.w3.org/2000/svg" style="display: none;">
    <symbol id="icon-search" viewBox="0 0 512 512">
        <path fill="currentColor" d="M505 442.7L405.3 343c-4.5-4.5-10.6-7-17-7H372c27.6-35.3 44-79.7 44-128C416 93.1 322.9 0 208 0S0 93.1 0 208s93.1 208 208 208c48.3 0 92.7-16.4 128-44v16.3c0 6.4 2.5 12.5 7 17l99.7 99.7c9.4 9.4 24.6 9.4 33.9 0l28.3-28.3c9.4-9.4 9.4-24.6.1-34zM208 336c-70.7 0-128-57.2-128-128 0-70.7 57.2-128 128-128 70.7 0 128 57.2 128 128 0 70.7-57.2 128-128 128z"></path>
    </symbol>


    <symbol id="icon-other" viewBox="0 0 512 512">
        <path fill="currentColor" d="M432 160H16a16 16 0 0 0-16 16v32a16 16 0 0 0 16 16h416a16 16 0 0 0 16-16v-32a16 16 0 0 0-16-16zm0 256H16a16 16 0 0 0-16 16v32a16 16 0 0 0 16 16h416a16 16 0 0 0 16-16v-32a16 16 0 0 0-16-16zM108.1 96h231.81A12.09 12.09 0 0 0 352 83.9V44.09A12.09 12.09 0 0 0 339.91 32H108.1A12.09 12.09 0 0 0 96 44.09V83.9A12.1 12.1 0 0 0 108.1 96zm231.81 256A12.09 12.09 0 0 0 352 339.9v-39.81A12.09 12.09 0 0 0 339.91 288H108.1A12.09 12.09 0 0 0 96 300.09v39.81a12.1 12.1 0 0 0 12.1 12.1z"></path>
    </symbol>

    <symbol id="icon-lazer" viewBox="0 0 512 512">
        <path fill="currentColor" d="M544 224l-128-16-48-16h-24L227.158 44h39.509C278.333 44 288 41.375 288 38s-9.667-6-21.333-6H152v12h16v164h-48l-66.667-80H18.667L8 138.667V208h8v16h48v2.666l-64 8v42.667l64 8V288H16v16H8v69.333L18.667 384h34.667L120 304h48v164h-16v12h114.667c11.667 0 21.333-2.625 21.333-6s-9.667-6-21.333-6h-39.509L344 320h24l48-16 128-16c96-21.333 96-26.583 96-32 0-5.417 0-10.667-96-32z"></path>
    </symbol>

    <symbol id="icon-kelogan" viewBox="0 0 512 512">
        <path d="M608 359.1c-13.25 0-24 10.75-24 24s10.75 24 24 24s24-10.75 24-24S621.3 359.1 608 359.1zM477.2 275c-21-47.13-48.49-151.8-73.11-186.8C365.6 33.63 302.5 0 234.1 0L192 0C86 0 0 86 0 192c0 56.75 24.75 107.6 64 142.9L64 512h223.1v-32h64.01c35.38 0 64-28.62 64-63.1L320 416c-17.67 0-32-14.33-32-32s14.33-32 32-32h95.98l-.003-32h31.99C471.1 320 486.6 296.1 477.2 275zM336 224c-17.62 0-32-14.38-32-32s14.38-32 32-32s32 14.38 32 32S353.6 224 336 224zM480 359.1c-13.25 0-23.1 10.75-23.1 24s10.75 24 23.1 24s24-10.75 24-24S493.3 359.1 480 359.1zM608 311.1c13.25 0 24-10.75 24-24s-10.75-24-24-24s-24 10.75-24 24S594.8 311.1 608 311.1zM544 311.1c-13.25 0-23.1 10.75-23.1 24s10.75 24 23.1 24s24-10.75 24-24S557.3 311.1 544 311.1zM544 407.1c-13.25 0-23.1 10.75-23.1 24s10.75 24 23.1 24s24-10.75 24-24S557.3 407.1 544 407.1zM608 455.1c-13.25 0-24 10.75-24 24s10.75 24 24 24s24-10.75 24-24S621.3 455.1 608 455.1z"/>
    </symbol>

    <symbol id="icon-fun" viewBox="0 0 512 512">
        <path fill="currentColor" d="M143.25 220.81l-12.42 46.37c-3.01 11.25-3.63 22.89-2.41 34.39l-35.2 28.98c-6.57 5.41-16.31-.43-14.62-8.77l15.44-76.68c1.06-5.26-2.66-10.28-8-10.79l-77.86-7.55c-8.47-.82-11.23-11.83-4.14-16.54l65.15-43.3c4.46-2.97 5.38-9.15 1.98-13.29L21.46 93.22c-5.41-6.57.43-16.3 8.78-14.62l76.68 15.44c5.26 1.06 10.28-2.66 10.8-8l7.55-77.86c.82-8.48 11.83-11.23 16.55-4.14l43.3 65.14c2.97 4.46 9.15 5.38 13.29 1.98l60.4-49.71c6.57-5.41 16.3.43 14.62 8.77L262.1 86.38c-2.71 3.05-5.43 6.09-7.91 9.4l-32.15 42.97-10.71 14.32c-32.73 8.76-59.18 34.53-68.08 67.74zm494.57 132.51l-12.42 46.36c-3.13 11.68-9.38 21.61-17.55 29.36a66.876 66.876 0 0 1-8.76 7l-13.99 52.23c-1.14 4.27-3.1 8.1-5.65 11.38-7.67 9.84-20.74 14.68-33.54 11.25L515 502.62c-17.07-4.57-27.2-22.12-22.63-39.19l8.28-30.91-247.28-66.26-8.28 30.91c-4.57 17.07-22.12 27.2-39.19 22.63l-30.91-8.28c-12.8-3.43-21.7-14.16-23.42-26.51-.57-4.12-.35-8.42.79-12.68l13.99-52.23a66.62 66.62 0 0 1-4.09-10.45c-3.2-10.79-3.65-22.52-.52-34.2l12.42-46.37c5.31-19.8 19.36-34.83 36.89-42.21a64.336 64.336 0 0 1 18.49-4.72l18.13-24.23 32.15-42.97c3.45-4.61 7.19-8.9 11.2-12.84 8-7.89 17.03-14.44 26.74-19.51 4.86-2.54 9.89-4.71 15.05-6.49 10.33-3.58 21.19-5.63 32.24-6.04 11.05-.41 22.31.82 33.43 3.8l122.68 32.87c11.12 2.98 21.48 7.54 30.85 13.43a111.11 111.11 0 0 1 34.69 34.5c8.82 13.88 14.64 29.84 16.68 46.99l6.36 53.29 3.59 30.05a64.49 64.49 0 0 1 22.74 29.93c4.39 11.88 5.29 25.19 1.75 38.39zM255.58 234.34c-18.55-4.97-34.21 4.04-39.17 22.53-4.96 18.49 4.11 34.12 22.65 39.09 18.55 4.97 45.54 15.51 50.49-2.98 4.96-18.49-15.43-53.67-33.97-58.64zm290.61 28.17l-6.36-53.29c-.58-4.87-1.89-9.53-3.82-13.86-5.8-12.99-17.2-23.01-31.42-26.82l-122.68-32.87a48.008 48.008 0 0 0-50.86 17.61l-32.15 42.97 172 46.08 75.29 20.18zm18.49 54.65c-18.55-4.97-53.8 15.31-58.75 33.79-4.95 18.49 23.69 22.86 42.24 27.83 18.55 4.97 34.21-4.04 39.17-22.53 4.95-18.48-4.11-34.12-22.66-39.09z"></path>
    </symbol>

    <symbol id="icon-bombic" viewBox="0 0 512 512">
        <path fill="currentColor" d="M496.616 372.639l70.012-70.012c16.899-16.9 9.942-45.771-12.836-53.092L512 236.102V96c0-17.673-14.327-32-32-32h-64V24c0-13.255-10.745-24-24-24H248c-13.255 0-24 10.745-24 24v40h-64c-17.673 0-32 14.327-32 32v140.102l-41.792 13.433c-22.753 7.313-29.754 36.173-12.836 53.092l70.012 70.012C125.828 416.287 85.587 448 24 448c-13.255 0-24 10.745-24 24v16c0 13.255 10.745 24 24 24 61.023 0 107.499-20.61 143.258-59.396C181.677 487.432 216.021 512 256 512h128c39.979 0 74.323-24.568 88.742-59.396C508.495 491.384 554.968 512 616 512c13.255 0 24-10.745 24-24v-16c0-13.255-10.745-24-24-24-60.817 0-101.542-31.001-119.384-75.361zM192 128h256v87.531l-118.208-37.995a31.995 31.995 0 0 0-19.584 0L192 215.531V128z"></path>
    </symbol>

    <symbol id="icon-donald" viewBox="0 0 512 512">
        <path fill="currentColor"
              d="M512 0C460.22 3.56 96.44 38.2 71.01 287.61c-3.09 26.66-4.84 53.44-5.99 80.24l178.87-178.69c6.25-6.25 16.4-6.25 22.65 0s6.25 16.38 0 22.63L7.04 471.03c-9.38 9.37-9.38 24.57 0 33.94 9.38 9.37 24.59 9.37 33.98 0l57.13-57.07c42.09-.14 84.15-2.53 125.96-7.36 53.48-5.44 97.02-26.47 132.58-56.54H255.74l146.79-48.88c11.25-14.89 21.37-30.71 30.45-47.12h-81.14l106.54-53.21C500.29 132.86 510.19 26.26 512 0z"></path>
    </symbol>

    <symbol id="icon-grendiser" viewBox="0 0 512 512">
        <path fill="currentColor"
              d="M505.12019,19.09375c-1.18945-5.53125-6.65819-11-12.207-12.1875C460.716,0,435.507,0,410.40747,0,307.17523,0,245.26909,55.20312,199.05238,128H94.83772c-16.34763.01562-35.55658,11.875-42.88664,26.48438L2.51562,253.29688A28.4,28.4,0,0,0,0,264a24.00867,24.00867,0,0,0,24.00582,24H127.81618l-22.47457,22.46875c-11.36521,11.36133-12.99607,32.25781,0,45.25L156.24582,406.625c11.15623,11.1875,32.15619,13.15625,45.27726,0l22.47457-22.46875V488a24.00867,24.00867,0,0,0,24.00581,24,28.55934,28.55934,0,0,0,10.707-2.51562l98.72834-49.39063c14.62888-7.29687,26.50776-26.5,26.50776-42.85937V312.79688c72.59753-46.3125,128.03493-108.40626,128.03493-211.09376C512.07526,76.5,512.07526,51.29688,505.12019,19.09375ZM384.04033,168A40,40,0,1,1,424.05,128,40.02322,40.02322,0,0,1,384.04033,168Z"></path>
    </symbol>

    <symbol id="icon-dany" viewBox="0 0 512 512">
        <path fill="currentColor"
              d="M368 416H48c-8.8 0-16 7.2-16 16v64c0 8.8 7.2 16 16 16h320c8.8 0 16-7.2 16-16v-64c0-8.8-7.2-16-16-16zm57-209.1c-27.2-22.6-67.5-19-90.1 8.2l-20.9 25-29.6-128.4c-18-77.5-95.4-125.9-172.8-108C34.2 21.6-14.2 98.9 3.7 176.4L51.6 384h309l72.5-87c22.7-27.2 19-67.5-8.1-90.1z"></path>
    </symbol>


    <symbol id="icon-fix" viewBox="0 0 512 512">
        <path fill="currentColor"
              d="M189.37,152.86Zm-58.74-29.37C130.79,123.5,130.71,123.5,130.63,123.49Zm351.42,45.35c-10.61-25.5-32.08-53-48.94-61.73,13.72,26.89,21.67,53.88,24.7,74,0,0,0,.14.05.41-27.58-68.75-74.35-96.47-112.55-156.83-1.93-3.05-3.86-6.11-5.74-9.33-1-1.65-1.86-3.34-2.69-5.05A44.88,44.88,0,0,1,333.24.69a.63.63,0,0,0-.55-.66.9.9,0,0,0-.46,0l-.12.07-.18.1.1-.14c-54.23,31.77-76.72,87.38-82.5,122.78a130,130,0,0,0-48.33,12.33,6.25,6.25,0,0,0-3.09,7.75,6.13,6.13,0,0,0,7.79,3.79l.52-.21a117.84,117.84,0,0,1,42.11-11l1.42-.1c2-.12,4-.2,6-.22A122.61,122.61,0,0,1,291,140c.67.2,1.32.42,2,.63,1.89.57,3.76,1.2,5.62,1.87,1.36.5,2.71,1,4.05,1.58,1.09.44,2.18.88,3.25,1.35q2.52,1.13,5,2.35c.75.37,1.5.74,2.25,1.13q2.4,1.26,4.74,2.63,1.51.87,3,1.8a124.89,124.89,0,0,1,42.66,44.13c-13-9.15-36.35-18.19-58.82-14.28,87.74,43.86,64.18,194.9-57.39,189.2a108.43,108.43,0,0,1-31.74-6.12c-2.42-.91-4.8-1.89-7.16-2.93-1.38-.63-2.76-1.27-4.12-2C174.5,346,149.9,316.92,146.83,281.59c0,0,11.25-41.95,80.62-41.95,7.5,0,28.93-20.92,29.33-27-.09-2-42.54-18.87-59.09-35.18-8.85-8.71-13.05-12.91-16.77-16.06a69.58,69.58,0,0,0-6.31-4.77A113.05,113.05,0,0,1,173.92,97c-25.06,11.41-44.55,29.45-58.71,45.37h-.12c-9.67-12.25-9-52.65-8.43-61.08-.12-.53-7.22,3.68-8.15,4.31a178.54,178.54,0,0,0-23.84,20.43A214,214,0,0,0,51.9,133.36l0,0a.08.08,0,0,1,0,0,205.84,205.84,0,0,0-32.73,73.9c-.06.27-2.33,10.21-4,22.48q-.42,2.87-.78,5.74c-.57,3.69-1,7.71-1.44,14,0,.24,0,.48-.05.72-.18,2.71-.34,5.41-.49,8.12,0,.41,0,.82,0,1.24,0,134.7,109.21,243.89,243.92,243.89,120.64,0,220.82-87.58,240.43-202.62.41-3.12.74-6.26,1.11-9.41,4.85-41.83-.54-85.79-15.82-122.55Z"></path>
    </symbol>

    <symbol id="icon-kent" viewBox="0 0 512 512">
        <path fill="currentColor"
              d="M438.66 212.33l-11.24-28.1-19.93-49.83C390.38 91.63 349.57 64 303.5 64h-127c-46.06 0-86.88 27.63-103.99 70.4l-19.93 49.83-11.24 28.1C17.22 221.5 0 244.66 0 272v48c0 16.12 6.16 30.67 16 41.93V416c0 17.67 14.33 32 32 32h32c17.67 0 32-14.33 32-32v-32h256v32c0 17.67 14.33 32 32 32h32c17.67 0 32-14.33 32-32v-54.07c9.84-11.25 16-25.8 16-41.93v-48c0-27.34-17.22-50.5-41.34-59.67zm-306.73-54.16c7.29-18.22 24.94-30.17 44.57-30.17h127c19.63 0 37.28 11.95 44.57 30.17L368 208H112l19.93-49.83zM80 319.8c-19.2 0-32-12.76-32-31.9S60.8 256 80 256s48 28.71 48 47.85-28.8 15.95-48 15.95zm320 0c-19.2 0-48 3.19-48-15.95S380.8 256 400 256s32 12.76 32 31.9-12.8 31.9-32 31.9z"></path>
    </symbol>

    <symbol id="icon-car" viewBox="0 0 512 512">
        <path d="M499.99 176h-59.87l-16.64-41.6C406.38 91.63 365.57 64 319.5 64h-127c-46.06 0-86.88 27.63-103.99 70.4L71.87 176H12.01C4.2 176-1.53 183.34.37 190.91l6 24C7.7 220.25 12.5 224 18.01 224h20.07C24.65 235.73 16 252.78 16 272v48c0 16.12 6.16 30.67 16 41.93V416c0 17.67 14.33 32 32 32h32c17.67 0 32-14.33 32-32v-32h256v32c0 17.67 14.33 32 32 32h32c17.67 0 32-14.33 32-32v-54.07c9.84-11.25 16-25.8 16-41.93v-48c0-19.22-8.65-36.27-22.07-48H494c5.51 0 10.31-3.75 11.64-9.09l6-24c1.89-7.57-3.84-14.91-11.65-14.91zm-352.06-17.83c7.29-18.22 24.94-30.17 44.57-30.17h127c19.63 0 37.28 11.95 44.57 30.17L384 208H128l19.93-49.83zM96 319.8c-19.2 0-32-12.76-32-31.9S76.8 256 96 256s48 28.71 48 47.85-28.8 15.95-48 15.95zm320 0c-19.2 0-48 3.19-48-15.95S396.8 256 416 256s32 12.76 32 31.9-12.8 31.9-32 31.9z"></path>
    </symbol>

    <symbol id="icon-cartoon" viewBox="0 0 512 512">
        <path d="M330.61 243.52a36.15 36.15 0 0 1 9.3 0c1.66-3.83 1.95-10.43.45-17.61-2.23-10.67-5.25-17.14-11.48-16.13s-6.47 8.74-4.24 19.42c1.26 6 3.49 11.14 6 14.32zM277.05 252c4.47 2 7.2 3.26 8.28 2.13 1.89-1.94-3.48-9.39-12.12-13.09a31.44 31.44 0 0 0-30.61 3.68c-3 2.18-5.81 5.22-5.41 7.06.85 3.74 10-2.71 22.6-3.48 7-.44 12.8 1.75 17.26 3.71zm-9 5.13c-9.07 1.42-15 6.53-13.47 10.1.9.34 1.17.81 5.21-.81a37 37 0 0 1 18.72-1.95c2.92.34 4.31.52 4.94-.49 1.46-2.22-5.71-8-15.39-6.85zm54.17 17.1c3.38-6.87-10.9-13.93-14.3-7s10.92 13.88 14.32 6.97zm15.66-20.47c-7.66-.13-7.95 15.8-.26 15.93s7.98-15.81.28-15.96zm-218.79 78.9c-1.32.31-6 1.45-8.47-2.35-5.2-8 11.11-20.38 3-35.77-9.1-17.47-27.82-13.54-35.05-5.54-8.71 9.6-8.72 23.54-5 24.08 4.27.57 4.08-6.47 7.38-11.63a12.83 12.83 0 0 1 17.85-3.72c11.59 7.59 1.37 17.76 2.28 28.62 1.39 16.68 18.42 16.37 21.58 9a2.08 2.08 0 0 0-.2-2.33c.03.89.68-1.3-3.35-.39zm299.72-17.07c-3.35-11.73-2.57-9.22-6.78-20.52 2.45-3.67 15.29-24-3.07-43.25-10.4-10.92-33.9-16.54-41.1-18.54-1.5-11.39 4.65-58.7-21.52-83 20.79-21.55 33.76-45.29 33.73-65.65-.06-39.16-48.15-51-107.42-26.47l-12.55 5.33c-.06-.05-22.71-22.27-23.05-22.57C169.5-18-41.77 216.81 25.78 273.85l14.76 12.51a72.49 72.49 0 0 0-4.1 33.5c3.36 33.4 36 60.42 67.53 60.38 57.73 133.06 267.9 133.28 322.29 3 1.74-4.47 9.11-24.61 9.11-42.38s-10.09-25.27-16.53-25.27zm-316 48.16c-22.82-.61-47.46-21.15-49.91-45.51-6.17-61.31 74.26-75.27 84-12.33 4.54 29.64-4.67 58.49-34.12 57.81zM84.3 249.55C69.14 252.5 55.78 261.09 47.6 273c-4.88-4.07-14-12-15.59-15-13.01-24.85 14.24-73 33.3-100.21C112.42 90.56 186.19 39.68 220.36 48.91c5.55 1.57 23.94 22.89 23.94 22.89s-34.15 18.94-65.8 45.35c-42.66 32.85-74.89 80.59-94.2 132.4zM323.18 350.7s-35.74 5.3-69.51-7.07c6.21-20.16 27 6.1 96.4-13.81 15.29-4.38 35.37-13 51-25.35a102.85 102.85 0 0 1 7.12 24.28c3.66-.66 14.25-.52 11.44 18.1-3.29 19.87-11.73 36-25.93 50.84A106.86 106.86 0 0 1 362.55 421a132.45 132.45 0 0 1-20.34 8.58c-53.51 17.48-108.3-1.74-126-43a66.33 66.33 0 0 1-3.55-9.74c-7.53-27.2-1.14-59.83 18.84-80.37 1.23-1.31 2.48-2.85 2.48-4.79a8.45 8.45 0 0 0-1.92-4.54c-7-10.13-31.19-27.4-26.33-60.83 3.5-24 24.49-40.91 44.07-39.91l5 .29c8.48.5 15.89 1.59 22.88 1.88 11.69.5 22.2-1.19 34.64-11.56 4.2-3.5 7.57-6.54 13.26-7.51a17.45 17.45 0 0 1 13.6 2.24c10 6.64 11.4 22.73 11.92 34.49.29 6.72 1.1 23 1.38 27.63.63 10.67 3.43 12.17 9.11 14 3.19 1.05 6.15 1.83 10.51 3.06 13.21 3.71 21 7.48 26 12.31a16.38 16.38 0 0 1 4.74 9.29c1.56 11.37-8.82 25.4-36.31 38.16-46.71 21.68-93.68 14.45-100.48 13.68-20.15-2.71-31.63 23.32-19.55 41.15 22.64 33.41 122.4 20 151.37-21.35.69-1 .12-1.59-.73-1-41.77 28.58-97.06 38.21-128.46 26-4.77-1.85-14.73-6.44-15.94-16.67 43.6 13.49 71 .74 71 .74s2.03-2.79-.56-2.53zm-68.47-5.7zm-83.4-187.5c16.74-19.35 37.36-36.18 55.83-45.63a.73.73 0 0 1 1 1c-1.46 2.66-4.29 8.34-5.19 12.65a.75.75 0 0 0 1.16.79c11.49-7.83 31.48-16.22 49-17.3a.77.77 0 0 1 .52 1.38 41.86 41.86 0 0 0-7.71 7.74.75.75 0 0 0 .59 1.19c12.31.09 29.66 4.4 41 10.74.76.43.22 1.91-.64 1.72-69.55-15.94-123.08 18.53-134.5 26.83a.76.76 0 0 1-1-1.12z"></path>
    </symbol>

    <symbol id="icon-heart" viewBox="0 0 512 512">
        <path d="M462.3 62.6C407.5 15.9 326 24.3 275.7 76.2L256 96.5l-19.7-20.3C186.1 24.3 104.5 15.9 49.7 62.6c-62.8 53.6-66.1 149.8-9.9 207.9l193.5 199.8c12.5 12.9 32.8 12.9 45.3 0l193.5-199.8c56.3-58.1 53-154.3-9.8-207.9z"></path>
    </symbol>


    <symbol id="icon-race" viewBox="0 0 512 512">
        <path fill="currentColor"
              d="M552 64H448V24c0-13.3-10.7-24-24-24H152c-13.3 0-24 10.7-24 24v40H24C10.7 64 0 74.7 0 88v56c0 35.7 22.5 72.4 61.9 100.7 31.5 22.7 69.8 37.1 110 41.7C203.3 338.5 240 360 240 360v72h-48c-35.3 0-64 20.7-64 56v12c0 6.6 5.4 12 12 12h296c6.6 0 12-5.4 12-12v-12c0-35.3-28.7-56-64-56h-48v-72s36.7-21.5 68.1-73.6c40.3-4.6 78.6-19 110-41.7 39.3-28.3 61.9-65 61.9-100.7V88c0-13.3-10.7-24-24-24zM99.3 192.8C74.9 175.2 64 155.6 64 144v-16h64.2c1 32.6 5.8 61.2 12.8 86.2-15.1-5.2-29.2-12.4-41.7-21.4zM512 144c0 16.1-17.7 36.1-35.3 48.8-12.5 9-26.7 16.2-41.8 21.4 7-25 11.8-53.6 12.8-86.2H512v16z"></path>
    </symbol>

    <symbol id="icon-dog" viewBox="0 0 512 512">
        <path d="M298.06,224,448,277.55V496a16,16,0,0,1-16,16H368a16,16,0,0,1-16-16V384H192V496a16,16,0,0,1-16,16H112a16,16,0,0,1-16-16V282.09C58.84,268.84,32,233.66,32,192a32,32,0,0,1,64,0,32.06,32.06,0,0,0,32,32ZM544,112v32a64,64,0,0,1-64,64H448v35.58L320,197.87V48c0-14.25,17.22-21.39,27.31-11.31L374.59,64h53.63c10.91,0,23.75,7.92,28.62,17.69L464,96h64A16,16,0,0,1,544,112Zm-112,0a16,16,0,1,0-16,16A16,16,0,0,0,432,112Z"></path>
    </symbol>

    <symbol id="icon-film" viewBox="0 0 512 512">
        <path d="M488 64h-8v20c0 6.6-5.4 12-12 12h-40c-6.6 0-12-5.4-12-12V64H96v20c0 6.6-5.4 12-12 12H44c-6.6 0-12-5.4-12-12V64h-8C10.7 64 0 74.7 0 88v336c0 13.3 10.7 24 24 24h8v-20c0-6.6 5.4-12 12-12h40c6.6 0 12 5.4 12 12v20h320v-20c0-6.6 5.4-12 12-12h40c6.6 0 12 5.4 12 12v20h8c13.3 0 24-10.7 24-24V88c0-13.3-10.7-24-24-24zM96 372c0 6.6-5.4 12-12 12H44c-6.6 0-12-5.4-12-12v-40c0-6.6 5.4-12 12-12h40c6.6 0 12 5.4 12 12v40zm0-96c0 6.6-5.4 12-12 12H44c-6.6 0-12-5.4-12-12v-40c0-6.6 5.4-12 12-12h40c6.6 0 12 5.4 12 12v40zm0-96c0 6.6-5.4 12-12 12H44c-6.6 0-12-5.4-12-12v-40c0-6.6 5.4-12 12-12h40c6.6 0 12 5.4 12 12v40zm272 208c0 6.6-5.4 12-12 12H156c-6.6 0-12-5.4-12-12v-96c0-6.6 5.4-12 12-12h200c6.6 0 12 5.4 12 12v96zm0-168c0 6.6-5.4 12-12 12H156c-6.6 0-12-5.4-12-12v-96c0-6.6 5.4-12 12-12h200c6.6 0 12 5.4 12 12v96zm112 152c0 6.6-5.4 12-12 12h-40c-6.6 0-12-5.4-12-12v-40c0-6.6 5.4-12 12-12h40c6.6 0 12 5.4 12 12v40zm0-96c0 6.6-5.4 12-12 12h-40c-6.6 0-12-5.4-12-12v-40c0-6.6 5.4-12 12-12h40c6.6 0 12 5.4 12 12v40zm0-96c0 6.6-5.4 12-12 12h-40c-6.6 0-12-5.4-12-12v-40c0-6.6 5.4-12 12-12h40c6.6 0 12 5.4 12 12v40z"></path>
    </symbol>

    <symbol id="icon-turbo" viewBox="0 0 512 512">
        <path d="M499.99 176h-59.87l-16.64-41.6C406.38 91.63 365.57 64 319.5 64h-127c-46.06 0-86.88 27.63-103.99 70.4L71.87 176H12.01C4.2 176-1.53 183.34.37 190.91l6 24C7.7 220.25 12.5 224 18.01 224h20.07C24.65 235.73 16 252.78 16 272v48c0 16.12 6.16 30.67 16 41.93V416c0 17.67 14.33 32 32 32h32c17.67 0 32-14.33 32-32v-32h256v32c0 17.67 14.33 32 32 32h32c17.67 0 32-14.33 32-32v-54.07c9.84-11.25 16-25.8 16-41.93v-48c0-19.22-8.65-36.27-22.07-48H494c5.51 0 10.31-3.75 11.64-9.09l6-24c1.89-7.57-3.84-14.91-11.65-14.91zm-352.06-17.83c7.29-18.22 24.94-30.17 44.57-30.17h127c19.63 0 37.28 11.95 44.57 30.17L384 208H128l19.93-49.83zM96 319.8c-19.2 0-32-12.76-32-31.9S76.8 256 96 256s48 28.71 48 47.85-28.8 15.95-48 15.95zm320 0c-19.2 0-48 3.19-48-15.95S396.8 256 416 256s32 12.76 32 31.9-12.8 31.9-32 31.9z"></path>
    </symbol>

    <symbol id="icon-bombibom" viewBox="0 0 512 512">
        <path fill="currentColor"
              d="M512.9 192c-14.9-.1-29.1 2.3-42.4 6.9L437.6 144H520c13.3 0 24-10.7 24-24V88c0-13.3-10.7-24-24-24h-45.3c-6.8 0-13.3 2.9-17.8 7.9l-37.5 41.7-22.8-38C392.2 68.4 384.4 64 376 64h-80c-8.8 0-16 7.2-16 16v16c0 8.8 7.2 16 16 16h66.4l19.2 32H227.9c-17.7-23.1-44.9-40-99.9-40H72.5C59 104 47.7 115 48 128.5c.2 13 10.9 23.5 24 23.5h56c24.5 0 38.7 10.9 47.8 24.8l-11.3 20.5c-13-3.9-26.9-5.7-41.3-5.2C55.9 194.5 1.6 249.6 0 317c-1.6 72.1 56.3 131 128 131 59.6 0 109.7-40.8 124-96h84.2c13.7 0 24.6-11.4 24-25.1-2.1-47.1 17.5-93.7 56.2-125l12.5 20.8c-27.6 23.7-45.1 58.9-44.8 98.2.5 69.6 57.2 126.5 126.8 127.1 71.6.7 129.8-57.5 129.2-129.1-.7-69.6-57.6-126.4-127.2-126.9zM128 400c-44.1 0-80-35.9-80-80s35.9-80 80-80c4.2 0 8.4.3 12.5 1L99 316.4c-8.8 16 2.8 35.6 21 35.6h81.3c-12.4 28.2-40.6 48-73.3 48zm463.9-75.6c-2.2 40.6-35 73.4-75.5 75.5-46.1 2.5-84.4-34.3-84.4-79.9 0-21.4 8.4-40.8 22.1-55.1l49.4 82.4c4.5 7.6 14.4 10 22 5.5l13.7-8.2c7.6-4.5 10-14.4 5.5-22l-48.6-80.9c5.2-1.1 10.5-1.6 15.9-1.6 45.6-.1 82.3 38.2 79.9 84.3z"></path>
    </symbol>

    <symbol id="icon-sport" viewBox="0 0 512 512">
        <path fill="currentColor"
              d="M483.8 179.4C449.8 74.6 352.6 8 248.1 8c-25.4 0-51.2 3.9-76.7 12.2C41.2 62.5-30.1 202.4 12.2 332.6 46.2 437.4 143.4 504 247.9 504c25.4 0 51.2-3.9 76.7-12.2 130.2-42.3 201.5-182.2 159.2-312.4zm-74.5 193.7l-52.2 6.4-43.7-60.9 24.4-75.2 71.1-22.1 38.9 36.4c-.2 30.7-7.4 61.1-21.7 89.2-4.7 9.3-10.7 17.8-16.8 26.2zm0-235.4l-10.4 53.1-70.7 22-64.2-46.5V92.5l47.4-26.2c39.2 13 73.4 38 97.9 71.4zM184.9 66.4L232 92.5v73.8l-64.2 46.5-70.6-22-10.1-52.5c24.3-33.4 57.9-58.6 97.8-71.9zM139 379.5L85.9 373c-14.4-20.1-37.3-59.6-37.8-115.3l39-36.4 71.1 22.2 24.3 74.3-43.5 61.7zm48.2 67l-22.4-48.1 43.6-61.7H287l44.3 61.7-22.4 48.1c-6.2 1.8-57.6 20.4-121.7 0z"></path>
    </symbol>

    <symbol id="icon-cars" viewBox="0 0 512 512">
        <path d="M624 288h-16v-64c0-17.67-14.33-32-32-32h-48L419.22 56.02A64.025 64.025 0 0 0 369.24 32H256c-17.67 0-32 14.33-32 32v128H64c-17.67 0-32 14.33-32 32v64H16c-8.84 0-16 7.16-16 16v32c0 8.84 7.16 16 16 16h49.61c-.76 5.27-1.61 10.52-1.61 16 0 61.86 50.14 112 112 112s112-50.14 112-112c0-5.48-.85-10.73-1.61-16h67.23c-.76 5.27-1.61 10.52-1.61 16 0 61.86 50.14 112 112 112s112-50.14 112-112c0-5.48-.85-10.73-1.61-16H624c8.84 0 16-7.16 16-16v-32c0-8.84-7.16-16-16-16zM288 96h81.24l76.8 96H288V96zM176 416c-26.47 0-48-21.53-48-48s21.53-48 48-48 48 21.53 48 48-21.53 48-48 48zm288 0c-26.47 0-48-21.53-48-48s21.53-48 48-48 48 21.53 48 48-21.53 48-48 48z"></path>
    </symbol>

    <symbol id="icon-tipitip" viewBox="0 0 512 512">
        <path fill="currentColor"
              d="M64 240c0 49.6 21.4 95 57 130.7-12.6 50.3-54.3 95.2-54.8 95.8-2.2 2.3-2.8 5.7-1.5 8.7 1.3 2.9 4.1 4.8 7.3 4.8 66.3 0 116-31.8 140.6-51.4 32.7 12.3 69 19.4 107.4 19.4 27.4 0 53.7-3.6 78.4-10L72.9 186.4c-5.6 17.1-8.9 35-8.9 53.6zm569.8 218.1l-114.4-88.4C554.6 334.1 576 289.2 576 240c0-114.9-114.6-208-256-208-65.1 0-124.2 20.1-169.4 52.7L45.5 3.4C38.5-2 28.5-.8 23 6.2L3.4 31.4c-5.4 7-4.2 17 2.8 22.4l588.4 454.7c7 5.4 17 4.2 22.5-2.8l19.6-25.3c5.4-6.8 4.1-16.9-2.9-22.3z"></path>
    </symbol>

    <symbol id="icon-add" viewBox="0 0 512 512">
        <path fill="currentColor"
              d="M400 32H48C21.5 32 0 53.5 0 80v352c0 26.5 21.5 48 48 48h352c26.5 0 48-21.5 48-48V80c0-26.5-21.5-48-48-48zm-32 252c0 6.6-5.4 12-12 12h-92v92c0 6.6-5.4 12-12 12h-56c-6.6 0-12-5.4-12-12v-92H92c-6.6 0-12-5.4-12-12v-56c0-6.6 5.4-12 12-12h92v-92c0-6.6 5.4-12 12-12h56c6.6 0 12 5.4 12 12v92h92c6.6 0 12 5.4 12 12v56z"></path>
    </symbol>

    <symbol id="icon-check" viewBox="0 0 512 512">
        <path fill="currentColor"
              d="M173.898 439.404l-166.4-166.4c-9.997-9.997-9.997-26.206 0-36.204l36.203-36.204c9.997-9.998 26.207-9.998 36.204 0L192 312.69 432.095 72.596c9.997-9.997 26.207-9.997 36.204 0l36.203 36.204c9.997 9.997 9.997 26.206 0 36.204l-294.4 294.401c-9.998 9.997-26.207 9.997-36.204-.001z"></path>
    </symbol>

    <symbol id="icon-double-check" viewBox="0 0 512 512">
        <path fill="currentColor"
              d="M505 174.8l-39.6-39.6c-9.4-9.4-24.6-9.4-33.9 0L192 374.7 80.6 263.2c-9.4-9.4-24.6-9.4-33.9 0L7 302.9c-9.4 9.4-9.4 24.6 0 34L175 505c9.4 9.4 24.6 9.4 33.9 0l296-296.2c9.4-9.5 9.4-24.7.1-34zm-324.3 106c6.2 6.3 16.4 6.3 22.6 0l208-208.2c6.2-6.3 6.2-16.4 0-22.6L366.1 4.7c-6.2-6.3-16.4-6.3-22.6 0L192 156.2l-55.4-55.5c-6.2-6.3-16.4-6.3-22.6 0L68.7 146c-6.2 6.3-6.2 16.4 0 22.6l112 112.2z"></path>
    </symbol>

    <symbol id="icon-uncheck" viewBox="0 0 512 512">
        <path fill="currentColor"
              d="M256 8C119.034 8 8 119.033 8 256s111.034 248 248 248 248-111.034 248-248S392.967 8 256 8zm130.108 117.892c65.448 65.448 70 165.481 20.677 235.637L150.47 105.216c70.204-49.356 170.226-44.735 235.638 20.676zM125.892 386.108c-65.448-65.448-70-165.481-20.677-235.637L361.53 406.784c-70.203 49.356-170.226 44.736-235.638-20.676z"></path>
    </symbol>

    <symbol id="icon-remove" viewBox="0 0 512 512">
        <path fill="currentColor"
              d="M32 464a48 48 0 0 0 48 48h288a48 48 0 0 0 48-48V128H32zm272-256a16 16 0 0 1 32 0v224a16 16 0 0 1-32 0zm-96 0a16 16 0 0 1 32 0v224a16 16 0 0 1-32 0zm-96 0a16 16 0 0 1 32 0v224a16 16 0 0 1-32 0zM432 32H312l-9.4-18.7A24 24 0 0 0 281.1 0H166.8a23.72 23.72 0 0 0-21.4 13.3L136 32H16A16 16 0 0 0 0 48v32a16 16 0 0 0 16 16h416a16 16 0 0 0 16-16V48a16 16 0 0 0-16-16z"></path>
    </symbol>

    <symbol id="icon-remove" viewBox="0 0 512 512">
        <path fill="currentColor"
              d="M256 8C119.034 8 8 119.033 8 256s111.034 248 248 248 248-111.034 248-248S392.967 8 256 8zm130.108 117.892c65.448 65.448 70 165.481 20.677 235.637L150.47 105.216c70.204-49.356 170.226-44.735 235.638 20.676zM125.892 386.108c-65.448-65.448-70-165.481-20.677-235.637L361.53 406.784c-70.203 49.356-170.226 44.736-235.638-20.676z"></path>
    </symbol>

    <symbol id="icon-delete" viewBox="0 0 512 512">
        <path fill="currentColor"
              d="M256 8C119 8 8 119 8 256s111 248 248 248 248-111 248-248S393 8 256 8zM124 296c-6.6 0-12-5.4-12-12v-56c0-6.6 5.4-12 12-12h264c6.6 0 12 5.4 12 12v56c0 6.6-5.4 12-12 12H124z"></path>
    </symbol>

    <symbol id="icon-edit" viewBox="0 0 512 512">
        <path fill="currentColor"
              d="M402.6 83.2l90.2 90.2c3.8 3.8 3.8 10 0 13.8L274.4 405.6l-92.8 10.3c-12.4 1.4-22.9-9.1-21.5-21.5l10.3-92.8L388.8 83.2c3.8-3.8 10-3.8 13.8 0zm162-22.9l-48.8-48.8c-15.2-15.2-39.9-15.2-55.2 0l-35.4 35.4c-3.8 3.8-3.8 10 0 13.8l90.2 90.2c3.8 3.8 10 3.8 13.8 0l35.4-35.4c15.2-15.3 15.2-40 0-55.2zM384 346.2V448H64V128h229.8c3.2 0 6.2-1.3 8.5-3.5l40-40c7.6-7.6 2.2-20.5-8.5-20.5H48C21.5 64 0 85.5 0 112v352c0 26.5 21.5 48 48 48h352c26.5 0 48-21.5 48-48V306.2c0-10.7-12.9-16-20.5-8.5l-40 40c-2.2 2.3-3.5 5.3-3.5 8.5z"></path>
    </symbol>

</svg>