<svg xmlns="http://www.w3.org/2000/svg" style="display: none;">


    <symbol id="icon-car" viewBox="0 0 512 512">
        <path d="M499.99 176h-59.87l-16.64-41.6C406.38 91.63 365.57 64 319.5 64h-127c-46.06 0-86.88 27.63-103.99 70.4L71.87 176H12.01C4.2 176-1.53 183.34.37 190.91l6 24C7.7 220.25 12.5 224 18.01 224h20.07C24.65 235.73 16 252.78 16 272v48c0 16.12 6.16 30.67 16 41.93V416c0 17.67 14.33 32 32 32h32c17.67 0 32-14.33 32-32v-32h256v32c0 17.67 14.33 32 32 32h32c17.67 0 32-14.33 32-32v-54.07c9.84-11.25 16-25.8 16-41.93v-48c0-19.22-8.65-36.27-22.07-48H494c5.51 0 10.31-3.75 11.64-9.09l6-24c1.89-7.57-3.84-14.91-11.65-14.91zm-352.06-17.83c7.29-18.22 24.94-30.17 44.57-30.17h127c19.63 0 37.28 11.95 44.57 30.17L384 208H128l19.93-49.83zM96 319.8c-19.2 0-32-12.76-32-31.9S76.8 256 96 256s48 28.71 48 47.85-28.8 15.95-48 15.95zm320 0c-19.2 0-48 3.19-48-15.95S396.8 256 416 256s32 12.76 32 31.9-12.8 31.9-32 31.9z"></path>
    </symbol>

    <symbol id="icon-cartoon" viewBox="0 0 512 512">
        <path d="M330.61 243.52a36.15 36.15 0 0 1 9.3 0c1.66-3.83 1.95-10.43.45-17.61-2.23-10.67-5.25-17.14-11.48-16.13s-6.47 8.74-4.24 19.42c1.26 6 3.49 11.14 6 14.32zM277.05 252c4.47 2 7.2 3.26 8.28 2.13 1.89-1.94-3.48-9.39-12.12-13.09a31.44 31.44 0 0 0-30.61 3.68c-3 2.18-5.81 5.22-5.41 7.06.85 3.74 10-2.71 22.6-3.48 7-.44 12.8 1.75 17.26 3.71zm-9 5.13c-9.07 1.42-15 6.53-13.47 10.1.9.34 1.17.81 5.21-.81a37 37 0 0 1 18.72-1.95c2.92.34 4.31.52 4.94-.49 1.46-2.22-5.71-8-15.39-6.85zm54.17 17.1c3.38-6.87-10.9-13.93-14.3-7s10.92 13.88 14.32 6.97zm15.66-20.47c-7.66-.13-7.95 15.8-.26 15.93s7.98-15.81.28-15.96zm-218.79 78.9c-1.32.31-6 1.45-8.47-2.35-5.2-8 11.11-20.38 3-35.77-9.1-17.47-27.82-13.54-35.05-5.54-8.71 9.6-8.72 23.54-5 24.08 4.27.57 4.08-6.47 7.38-11.63a12.83 12.83 0 0 1 17.85-3.72c11.59 7.59 1.37 17.76 2.28 28.62 1.39 16.68 18.42 16.37 21.58 9a2.08 2.08 0 0 0-.2-2.33c.03.89.68-1.3-3.35-.39zm299.72-17.07c-3.35-11.73-2.57-9.22-6.78-20.52 2.45-3.67 15.29-24-3.07-43.25-10.4-10.92-33.9-16.54-41.1-18.54-1.5-11.39 4.65-58.7-21.52-83 20.79-21.55 33.76-45.29 33.73-65.65-.06-39.16-48.15-51-107.42-26.47l-12.55 5.33c-.06-.05-22.71-22.27-23.05-22.57C169.5-18-41.77 216.81 25.78 273.85l14.76 12.51a72.49 72.49 0 0 0-4.1 33.5c3.36 33.4 36 60.42 67.53 60.38 57.73 133.06 267.9 133.28 322.29 3 1.74-4.47 9.11-24.61 9.11-42.38s-10.09-25.27-16.53-25.27zm-316 48.16c-22.82-.61-47.46-21.15-49.91-45.51-6.17-61.31 74.26-75.27 84-12.33 4.54 29.64-4.67 58.49-34.12 57.81zM84.3 249.55C69.14 252.5 55.78 261.09 47.6 273c-4.88-4.07-14-12-15.59-15-13.01-24.85 14.24-73 33.3-100.21C112.42 90.56 186.19 39.68 220.36 48.91c5.55 1.57 23.94 22.89 23.94 22.89s-34.15 18.94-65.8 45.35c-42.66 32.85-74.89 80.59-94.2 132.4zM323.18 350.7s-35.74 5.3-69.51-7.07c6.21-20.16 27 6.1 96.4-13.81 15.29-4.38 35.37-13 51-25.35a102.85 102.85 0 0 1 7.12 24.28c3.66-.66 14.25-.52 11.44 18.1-3.29 19.87-11.73 36-25.93 50.84A106.86 106.86 0 0 1 362.55 421a132.45 132.45 0 0 1-20.34 8.58c-53.51 17.48-108.3-1.74-126-43a66.33 66.33 0 0 1-3.55-9.74c-7.53-27.2-1.14-59.83 18.84-80.37 1.23-1.31 2.48-2.85 2.48-4.79a8.45 8.45 0 0 0-1.92-4.54c-7-10.13-31.19-27.4-26.33-60.83 3.5-24 24.49-40.91 44.07-39.91l5 .29c8.48.5 15.89 1.59 22.88 1.88 11.69.5 22.2-1.19 34.64-11.56 4.2-3.5 7.57-6.54 13.26-7.51a17.45 17.45 0 0 1 13.6 2.24c10 6.64 11.4 22.73 11.92 34.49.29 6.72 1.1 23 1.38 27.63.63 10.67 3.43 12.17 9.11 14 3.19 1.05 6.15 1.83 10.51 3.06 13.21 3.71 21 7.48 26 12.31a16.38 16.38 0 0 1 4.74 9.29c1.56 11.37-8.82 25.4-36.31 38.16-46.71 21.68-93.68 14.45-100.48 13.68-20.15-2.71-31.63 23.32-19.55 41.15 22.64 33.41 122.4 20 151.37-21.35.69-1 .12-1.59-.73-1-41.77 28.58-97.06 38.21-128.46 26-4.77-1.85-14.73-6.44-15.94-16.67 43.6 13.49 71 .74 71 .74s2.03-2.79-.56-2.53zm-68.47-5.7zm-83.4-187.5c16.74-19.35 37.36-36.18 55.83-45.63a.73.73 0 0 1 1 1c-1.46 2.66-4.29 8.34-5.19 12.65a.75.75 0 0 0 1.16.79c11.49-7.83 31.48-16.22 49-17.3a.77.77 0 0 1 .52 1.38 41.86 41.86 0 0 0-7.71 7.74.75.75 0 0 0 .59 1.19c12.31.09 29.66 4.4 41 10.74.76.43.22 1.91-.64 1.72-69.55-15.94-123.08 18.53-134.5 26.83a.76.76 0 0 1-1-1.12z"></path>
    </symbol>

    <symbol id="icon-heart" viewBox="0 0 512 512">
        <path d="M462.3 62.6C407.5 15.9 326 24.3 275.7 76.2L256 96.5l-19.7-20.3C186.1 24.3 104.5 15.9 49.7 62.6c-62.8 53.6-66.1 149.8-9.9 207.9l193.5 199.8c12.5 12.9 32.8 12.9 45.3 0l193.5-199.8c56.3-58.1 53-154.3-9.8-207.9z"></path>
    </symbol>


    <symbol id="icon-dog" viewBox="0 0 512 512">
        <path d="M298.06,224,448,277.55V496a16,16,0,0,1-16,16H368a16,16,0,0,1-16-16V384H192V496a16,16,0,0,1-16,16H112a16,16,0,0,1-16-16V282.09C58.84,268.84,32,233.66,32,192a32,32,0,0,1,64,0,32.06,32.06,0,0,0,32,32ZM544,112v32a64,64,0,0,1-64,64H448v35.58L320,197.87V48c0-14.25,17.22-21.39,27.31-11.31L374.59,64h53.63c10.91,0,23.75,7.92,28.62,17.69L464,96h64A16,16,0,0,1,544,112Zm-112,0a16,16,0,1,0-16,16A16,16,0,0,0,432,112Z"></path>
    </symbol>

    <symbol id="icon-film" viewBox="0 0 512 512">
        <path d="M488 64h-8v20c0 6.6-5.4 12-12 12h-40c-6.6 0-12-5.4-12-12V64H96v20c0 6.6-5.4 12-12 12H44c-6.6 0-12-5.4-12-12V64h-8C10.7 64 0 74.7 0 88v336c0 13.3 10.7 24 24 24h8v-20c0-6.6 5.4-12 12-12h40c6.6 0 12 5.4 12 12v20h320v-20c0-6.6 5.4-12 12-12h40c6.6 0 12 5.4 12 12v20h8c13.3 0 24-10.7 24-24V88c0-13.3-10.7-24-24-24zM96 372c0 6.6-5.4 12-12 12H44c-6.6 0-12-5.4-12-12v-40c0-6.6 5.4-12 12-12h40c6.6 0 12 5.4 12 12v40zm0-96c0 6.6-5.4 12-12 12H44c-6.6 0-12-5.4-12-12v-40c0-6.6 5.4-12 12-12h40c6.6 0 12 5.4 12 12v40zm0-96c0 6.6-5.4 12-12 12H44c-6.6 0-12-5.4-12-12v-40c0-6.6 5.4-12 12-12h40c6.6 0 12 5.4 12 12v40zm272 208c0 6.6-5.4 12-12 12H156c-6.6 0-12-5.4-12-12v-96c0-6.6 5.4-12 12-12h200c6.6 0 12 5.4 12 12v96zm0-168c0 6.6-5.4 12-12 12H156c-6.6 0-12-5.4-12-12v-96c0-6.6 5.4-12 12-12h200c6.6 0 12 5.4 12 12v96zm112 152c0 6.6-5.4 12-12 12h-40c-6.6 0-12-5.4-12-12v-40c0-6.6 5.4-12 12-12h40c6.6 0 12 5.4 12 12v40zm0-96c0 6.6-5.4 12-12 12h-40c-6.6 0-12-5.4-12-12v-40c0-6.6 5.4-12 12-12h40c6.6 0 12 5.4 12 12v40zm0-96c0 6.6-5.4 12-12 12h-40c-6.6 0-12-5.4-12-12v-40c0-6.6 5.4-12 12-12h40c6.6 0 12 5.4 12 12v40z"></path>
    </symbol>

    <symbol id="icon-turbo" viewBox="0 0 512 512">
        <path d="M499.99 176h-59.87l-16.64-41.6C406.38 91.63 365.57 64 319.5 64h-127c-46.06 0-86.88 27.63-103.99 70.4L71.87 176H12.01C4.2 176-1.53 183.34.37 190.91l6 24C7.7 220.25 12.5 224 18.01 224h20.07C24.65 235.73 16 252.78 16 272v48c0 16.12 6.16 30.67 16 41.93V416c0 17.67 14.33 32 32 32h32c17.67 0 32-14.33 32-32v-32h256v32c0 17.67 14.33 32 32 32h32c17.67 0 32-14.33 32-32v-54.07c9.84-11.25 16-25.8 16-41.93v-48c0-19.22-8.65-36.27-22.07-48H494c5.51 0 10.31-3.75 11.64-9.09l6-24c1.89-7.57-3.84-14.91-11.65-14.91zm-352.06-17.83c7.29-18.22 24.94-30.17 44.57-30.17h127c19.63 0 37.28 11.95 44.57 30.17L384 208H128l19.93-49.83zM96 319.8c-19.2 0-32-12.76-32-31.9S76.8 256 96 256s48 28.71 48 47.85-28.8 15.95-48 15.95zm320 0c-19.2 0-48 3.19-48-15.95S396.8 256 416 256s32 12.76 32 31.9-12.8 31.9-32 31.9z"></path>
    </symbol>

    <symbol id="icon-bombibom" viewBox="0 0 512 512">
        <path fill="currentColor" d="M512.9 192c-14.9-.1-29.1 2.3-42.4 6.9L437.6 144H520c13.3 0 24-10.7 24-24V88c0-13.3-10.7-24-24-24h-45.3c-6.8 0-13.3 2.9-17.8 7.9l-37.5 41.7-22.8-38C392.2 68.4 384.4 64 376 64h-80c-8.8 0-16 7.2-16 16v16c0 8.8 7.2 16 16 16h66.4l19.2 32H227.9c-17.7-23.1-44.9-40-99.9-40H72.5C59 104 47.7 115 48 128.5c.2 13 10.9 23.5 24 23.5h56c24.5 0 38.7 10.9 47.8 24.8l-11.3 20.5c-13-3.9-26.9-5.7-41.3-5.2C55.9 194.5 1.6 249.6 0 317c-1.6 72.1 56.3 131 128 131 59.6 0 109.7-40.8 124-96h84.2c13.7 0 24.6-11.4 24-25.1-2.1-47.1 17.5-93.7 56.2-125l12.5 20.8c-27.6 23.7-45.1 58.9-44.8 98.2.5 69.6 57.2 126.5 126.8 127.1 71.6.7 129.8-57.5 129.2-129.1-.7-69.6-57.6-126.4-127.2-126.9zM128 400c-44.1 0-80-35.9-80-80s35.9-80 80-80c4.2 0 8.4.3 12.5 1L99 316.4c-8.8 16 2.8 35.6 21 35.6h81.3c-12.4 28.2-40.6 48-73.3 48zm463.9-75.6c-2.2 40.6-35 73.4-75.5 75.5-46.1 2.5-84.4-34.3-84.4-79.9 0-21.4 8.4-40.8 22.1-55.1l49.4 82.4c4.5 7.6 14.4 10 22 5.5l13.7-8.2c7.6-4.5 10-14.4 5.5-22l-48.6-80.9c5.2-1.1 10.5-1.6 15.9-1.6 45.6-.1 82.3 38.2 79.9 84.3z"></path>
    </symbol>

    <symbol id="icon-sport" viewBox="0 0 512 512">
        <path fill="currentColor" d="M483.8 179.4C449.8 74.6 352.6 8 248.1 8c-25.4 0-51.2 3.9-76.7 12.2C41.2 62.5-30.1 202.4 12.2 332.6 46.2 437.4 143.4 504 247.9 504c25.4 0 51.2-3.9 76.7-12.2 130.2-42.3 201.5-182.2 159.2-312.4zm-74.5 193.7l-52.2 6.4-43.7-60.9 24.4-75.2 71.1-22.1 38.9 36.4c-.2 30.7-7.4 61.1-21.7 89.2-4.7 9.3-10.7 17.8-16.8 26.2zm0-235.4l-10.4 53.1-70.7 22-64.2-46.5V92.5l47.4-26.2c39.2 13 73.4 38 97.9 71.4zM184.9 66.4L232 92.5v73.8l-64.2 46.5-70.6-22-10.1-52.5c24.3-33.4 57.9-58.6 97.8-71.9zM139 379.5L85.9 373c-14.4-20.1-37.3-59.6-37.8-115.3l39-36.4 71.1 22.2 24.3 74.3-43.5 61.7zm48.2 67l-22.4-48.1 43.6-61.7H287l44.3 61.7-22.4 48.1c-6.2 1.8-57.6 20.4-121.7 0z"></path>
    </symbol>

    <symbol id="icon-cars" viewBox="0 0 512 512">
        <path d="M624 288h-16v-64c0-17.67-14.33-32-32-32h-48L419.22 56.02A64.025 64.025 0 0 0 369.24 32H256c-17.67 0-32 14.33-32 32v128H64c-17.67 0-32 14.33-32 32v64H16c-8.84 0-16 7.16-16 16v32c0 8.84 7.16 16 16 16h49.61c-.76 5.27-1.61 10.52-1.61 16 0 61.86 50.14 112 112 112s112-50.14 112-112c0-5.48-.85-10.73-1.61-16h67.23c-.76 5.27-1.61 10.52-1.61 16 0 61.86 50.14 112 112 112s112-50.14 112-112c0-5.48-.85-10.73-1.61-16H624c8.84 0 16-7.16 16-16v-32c0-8.84-7.16-16-16-16zM288 96h81.24l76.8 96H288V96zM176 416c-26.47 0-48-21.53-48-48s21.53-48 48-48 48 21.53 48 48-21.53 48-48 48zm288 0c-26.47 0-48-21.53-48-48s21.53-48 48-48 48 21.53 48 48-21.53 48-48 48z"></path>
    </symbol>

    <symbol id="icon-tipitip" viewBox="0 0 512 512">
        <path fill="currentColor" d="M64 240c0 49.6 21.4 95 57 130.7-12.6 50.3-54.3 95.2-54.8 95.8-2.2 2.3-2.8 5.7-1.5 8.7 1.3 2.9 4.1 4.8 7.3 4.8 66.3 0 116-31.8 140.6-51.4 32.7 12.3 69 19.4 107.4 19.4 27.4 0 53.7-3.6 78.4-10L72.9 186.4c-5.6 17.1-8.9 35-8.9 53.6zm569.8 218.1l-114.4-88.4C554.6 334.1 576 289.2 576 240c0-114.9-114.6-208-256-208-65.1 0-124.2 20.1-169.4 52.7L45.5 3.4C38.5-2 28.5-.8 23 6.2L3.4 31.4c-5.4 7-4.2 17 2.8 22.4l588.4 454.7c7 5.4 17 4.2 22.5-2.8l19.6-25.3c5.4-6.8 4.1-16.9-2.9-22.3z"></path>
    </symbol>

    <symbol id="icon-add" viewBox="0 0 512 512">
        <path fill="currentColor"
              d="M400 32H48C21.5 32 0 53.5 0 80v352c0 26.5 21.5 48 48 48h352c26.5 0 48-21.5 48-48V80c0-26.5-21.5-48-48-48zm-32 252c0 6.6-5.4 12-12 12h-92v92c0 6.6-5.4 12-12 12h-56c-6.6 0-12-5.4-12-12v-92H92c-6.6 0-12-5.4-12-12v-56c0-6.6 5.4-12 12-12h92v-92c0-6.6 5.4-12 12-12h56c6.6 0 12 5.4 12 12v92h92c6.6 0 12 5.4 12 12v56z"></path>
    </symbol>

    <symbol id="icon-check" viewBox="0 0 512 512">
        <path fill="currentColor"
              d="M173.898 439.404l-166.4-166.4c-9.997-9.997-9.997-26.206 0-36.204l36.203-36.204c9.997-9.998 26.207-9.998 36.204 0L192 312.69 432.095 72.596c9.997-9.997 26.207-9.997 36.204 0l36.203 36.204c9.997 9.997 9.997 26.206 0 36.204l-294.4 294.401c-9.998 9.997-26.207 9.997-36.204-.001z"></path>
    </symbol>

    <symbol id="icon-double-check" viewBox="0 0 512 512">
        <path fill="currentColor"
              d="M505 174.8l-39.6-39.6c-9.4-9.4-24.6-9.4-33.9 0L192 374.7 80.6 263.2c-9.4-9.4-24.6-9.4-33.9 0L7 302.9c-9.4 9.4-9.4 24.6 0 34L175 505c9.4 9.4 24.6 9.4 33.9 0l296-296.2c9.4-9.5 9.4-24.7.1-34zm-324.3 106c6.2 6.3 16.4 6.3 22.6 0l208-208.2c6.2-6.3 6.2-16.4 0-22.6L366.1 4.7c-6.2-6.3-16.4-6.3-22.6 0L192 156.2l-55.4-55.5c-6.2-6.3-16.4-6.3-22.6 0L68.7 146c-6.2 6.3-6.2 16.4 0 22.6l112 112.2z"></path>
    </symbol>

    <symbol id="icon-uncheck" viewBox="0 0 512 512">
        <path fill="currentColor"
              d="M256 8C119.034 8 8 119.033 8 256s111.034 248 248 248 248-111.034 248-248S392.967 8 256 8zm130.108 117.892c65.448 65.448 70 165.481 20.677 235.637L150.47 105.216c70.204-49.356 170.226-44.735 235.638 20.676zM125.892 386.108c-65.448-65.448-70-165.481-20.677-235.637L361.53 406.784c-70.203 49.356-170.226 44.736-235.638-20.676z"></path>
    </symbol>

    <symbol id="icon-remove" viewBox="0 0 512 512">
        <path fill="currentColor"
              d="M32 464a48 48 0 0 0 48 48h288a48 48 0 0 0 48-48V128H32zm272-256a16 16 0 0 1 32 0v224a16 16 0 0 1-32 0zm-96 0a16 16 0 0 1 32 0v224a16 16 0 0 1-32 0zm-96 0a16 16 0 0 1 32 0v224a16 16 0 0 1-32 0zM432 32H312l-9.4-18.7A24 24 0 0 0 281.1 0H166.8a23.72 23.72 0 0 0-21.4 13.3L136 32H16A16 16 0 0 0 0 48v32a16 16 0 0 0 16 16h416a16 16 0 0 0 16-16V48a16 16 0 0 0-16-16z"></path>
    </symbol>

    <symbol id="icon-remove" viewBox="0 0 512 512">
        <path fill="currentColor"
              d="M256 8C119.034 8 8 119.033 8 256s111.034 248 248 248 248-111.034 248-248S392.967 8 256 8zm130.108 117.892c65.448 65.448 70 165.481 20.677 235.637L150.47 105.216c70.204-49.356 170.226-44.735 235.638 20.676zM125.892 386.108c-65.448-65.448-70-165.481-20.677-235.637L361.53 406.784c-70.203 49.356-170.226 44.736-235.638-20.676z"></path>
    </symbol>

    <symbol id="icon-delete" viewBox="0 0 512 512">
        <path fill="currentColor" d="M256 8C119 8 8 119 8 256s111 248 248 248 248-111 248-248S393 8 256 8zM124 296c-6.6 0-12-5.4-12-12v-56c0-6.6 5.4-12 12-12h264c6.6 0 12 5.4 12 12v56c0 6.6-5.4 12-12 12H124z"></path>
    </symbol>

    <symbol id="icon-edit" viewBox="0 0 512 512">
        <path fill="currentColor" d="M402.6 83.2l90.2 90.2c3.8 3.8 3.8 10 0 13.8L274.4 405.6l-92.8 10.3c-12.4 1.4-22.9-9.1-21.5-21.5l10.3-92.8L388.8 83.2c3.8-3.8 10-3.8 13.8 0zm162-22.9l-48.8-48.8c-15.2-15.2-39.9-15.2-55.2 0l-35.4 35.4c-3.8 3.8-3.8 10 0 13.8l90.2 90.2c3.8 3.8 10 3.8 13.8 0l35.4-35.4c15.2-15.3 15.2-40 0-55.2zM384 346.2V448H64V128h229.8c3.2 0 6.2-1.3 8.5-3.5l40-40c7.6-7.6 2.2-20.5-8.5-20.5H48C21.5 64 0 85.5 0 112v352c0 26.5 21.5 48 48 48h352c26.5 0 48-21.5 48-48V306.2c0-10.7-12.9-16-20.5-8.5l-40 40c-2.2 2.3-3.5 5.3-3.5 8.5z"></path>
    </symbol>

</svg>